<svg xmlns="http://www.w3.org/2000/svg" xmlns:xlink="http://www.w3.org/1999/xlink" width="500" zoomAndPan="magnify" viewBox="0 0 375 374.999991" height="500" preserveAspectRatio="xMidYMid meet" version="1.0"><defs><clipPath id="091aee63d6"><path d="M 187.5 0 C 83.945312 0 0 83.945312 0 187.5 C 0 291.054688 83.945312 375 187.5 375 C 291.054688 375 375 291.054688 375 187.5 C 375 83.945312 291.054688 0 187.5 0 Z M 187.5 0 " clip-rule="nonzero"/></clipPath><clipPath id="a75a264541"><path d="M 59 80.019531 L 315.960938 80.019531 L 315.960938 295 L 59 295 Z M 59 80.019531 " clip-rule="nonzero"/></clipPath></defs><g clip-path="url(#091aee63d6)"><rect x="-37.5" width="450" fill="#000000" y="-37.499999" height="449.999989" fill-opacity="1"/></g><path fill="#4fe64c" d="M 125.746094 157.8125 L 149.601562 157.8125 L 149.601562 181.667969 L 125.746094 181.667969 Z M 125.746094 157.8125 " fill-opacity="1" fill-rule="evenodd"/><path fill="#e84444" d="M 190.058594 139.074219 L 209.21875 139.074219 L 209.21875 158.25 L 190.058594 158.25 Z M 190.058594 139.074219 " fill-opacity="1" fill-rule="evenodd"/><path fill="#4fe64c" d="M 153.007812 185.703125 L 172.167969 185.703125 L 172.167969 204.863281 L 153.007812 204.863281 Z M 153.007812 185.703125 " fill-opacity="1" fill-rule="evenodd"/><path fill="#e84444" d="M 128.949219 206.574219 L 138.527344 206.574219 L 138.527344 216.15625 L 128.949219 216.15625 Z M 128.949219 206.574219 " fill-opacity="1" fill-rule="evenodd"/><path fill="#e84444" d="M 121.378906 132.164062 L 130.972656 132.164062 L 130.972656 141.742188 L 121.378906 141.742188 Z M 121.378906 132.164062 " fill-opacity="1" fill-rule="evenodd"/><path fill="#e84444" d="M 168.226562 158.988281 L 177.808594 158.988281 L 177.808594 168.570312 L 168.226562 168.570312 Z M 168.226562 158.988281 " fill-opacity="1" fill-rule="evenodd"/><path fill="#e84444" d="M 219.332031 130.984375 L 228.914062 130.984375 L 228.914062 140.566406 L 219.332031 140.566406 Z M 219.332031 130.984375 " fill-opacity="1" fill-rule="evenodd"/><path fill="#e84444" d="M 211.4375 113.097656 L 224.890625 113.097656 L 224.890625 126.566406 L 211.4375 126.566406 Z M 211.4375 113.097656 " fill-opacity="1" fill-rule="evenodd"/><path fill="#e84444" d="M 162.792969 93.089844 L 176.261719 93.089844 L 176.261719 106.542969 L 162.792969 106.542969 Z M 162.792969 93.089844 " fill-opacity="1" fill-rule="evenodd"/><path fill="#e84444" d="M 195.421875 107.9375 L 205.003906 107.9375 L 205.003906 117.519531 L 195.421875 117.519531 Z M 195.421875 107.9375 " fill-opacity="1" fill-rule="evenodd"/><path fill="#e84444" d="M 244.035156 137.269531 L 253.617188 137.269531 L 253.617188 146.847656 L 244.035156 146.847656 Z M 244.035156 137.269531 " fill-opacity="1" fill-rule="evenodd"/><path fill="#4fe64c" d="M 189.933594 167.417969 L 214.433594 167.417969 L 214.433594 191.917969 L 189.933594 191.917969 Z M 189.933594 167.417969 " fill-opacity="1" fill-rule="evenodd"/><path fill="#4fe64c" d="M 138.71875 230.117188 L 166.832031 230.117188 L 166.832031 258.226562 L 138.71875 258.226562 Z M 138.71875 230.117188 " fill-opacity="1" fill-rule="evenodd"/><path fill="#e84444" d="M 173.960938 211.941406 L 193.125 211.941406 L 193.125 231.113281 L 173.960938 231.113281 Z M 173.960938 211.941406 " fill-opacity="1" fill-rule="evenodd"/><path fill="#4fe64c" d="M 204.15625 236.917969 L 223.316406 236.917969 L 223.316406 256.078125 L 204.15625 256.078125 Z M 204.15625 236.917969 " fill-opacity="1" fill-rule="evenodd"/><path fill="#e84444" d="M 144.933594 275.8125 L 164.09375 275.8125 L 164.09375 294.976562 L 144.933594 294.976562 Z M 144.933594 275.8125 " fill-opacity="1" fill-rule="evenodd"/><path fill="#e84444" d="M 218.675781 159.113281 L 237.835938 159.113281 L 237.835938 178.273438 L 218.675781 178.273438 Z M 218.675781 159.113281 " fill-opacity="1" fill-rule="evenodd"/><path fill="#e84444" d="M 152.625 210.925781 L 162.207031 210.925781 L 162.207031 220.507812 L 152.625 220.507812 Z M 152.625 210.925781 " fill-opacity="1" fill-rule="evenodd"/><path fill="#e84444" d="M 185.089844 196.886719 L 194.667969 196.886719 L 194.667969 206.464844 L 185.089844 206.464844 Z M 185.089844 196.886719 " fill-opacity="1" fill-rule="evenodd"/><path fill="#e84444" d="M 176.835938 244.308594 L 194 244.308594 L 194 261.457031 L 176.835938 261.457031 Z M 176.835938 244.308594 " fill-opacity="1" fill-rule="evenodd"/><path fill="#e84444" d="M 171.320312 278.6875 L 182.679688 278.6875 L 182.679688 290.035156 L 171.320312 290.035156 Z M 171.320312 278.6875 " fill-opacity="1" fill-rule="evenodd"/><path fill="#e84444" d="M 199.488281 205.988281 L 216.636719 205.988281 L 216.636719 223.136719 L 199.488281 223.136719 Z M 199.488281 205.988281 " fill-opacity="1" fill-rule="evenodd"/><path fill="#e84444" d="M 220.960938 189.726562 L 238.125 189.726562 L 238.125 206.875 L 220.960938 206.875 Z M 220.960938 189.726562 " fill-opacity="1" fill-rule="evenodd"/><path fill="#4fe64c" d="M 149.175781 117.792969 L 177.273438 117.792969 L 177.273438 145.890625 L 149.175781 145.890625 Z M 149.175781 117.792969 " fill-opacity="1" fill-rule="evenodd"/><g clip-path="url(#a75a264541)"><path fill="#e84444" d="M 59.121094 178.3125 C 64.839844 178.164062 69.535156 176.628906 73.164062 173.660156 C 76.75 170.71875 79.15625 166.679688 80.375 161.5625 C 81.566406 156.414062 82.167969 147.585938 82.25 135.148438 C 82.320312 122.707031 82.550781 114.492188 82.933594 110.566406 C 83.621094 104.3125 84.835938 99.261719 86.671875 95.457031 C 88.503906 91.679688 90.761719 88.625 93.433594 86.328125 C 96.140625 84.070312 99.578125 82.316406 103.738281 81.140625 C 106.558594 80.414062 111.183594 80.03125 117.589844 80.03125 L 123.84375 80.03125 L 123.84375 97.589844 L 120.367188 97.589844 C 112.621094 97.589844 107.5 98.960938 104.941406 101.792969 C 102.425781 104.585938 101.164062 110.796875 101.164062 120.503906 C 101.164062 140.046875 100.742188 152.378906 99.90625 157.539062 C 98.578125 165.515625 96.277344 171.660156 93.035156 175.972656 C 89.792969 180.324219 84.714844 184.144531 77.761719 187.496094 C 85.972656 190.933594 91.925781 196.160156 95.621094 203.222656 C 99.289062 210.242188 101.152344 221.808594 101.152344 237.847656 C 101.152344 252.355469 101.261719 261.019531 101.574219 263.769531 C 102.191406 268.847656 103.667969 272.40625 106.121094 274.417969 C 108.527344 276.402344 113.292969 277.429688 120.351562 277.429688 L 123.828125 277.429688 L 123.828125 294.988281 L 117.574219 294.988281 C 110.28125 294.988281 104.984375 294.386719 101.699219 293.195312 C 96.921875 291.484375 92.996094 288.691406 89.859375 284.875 C 86.726562 281.015625 84.671875 276.171875 83.757812 270.257812 C 82.839844 264.371094 82.304688 254.722656 82.222656 241.285156 C 82.140625 227.886719 81.539062 218.605469 80.347656 213.460938 C 79.128906 208.300781 76.722656 204.261719 73.136719 201.277344 C 69.507812 198.269531 64.8125 196.695312 59.09375 196.585938 L 59.09375 178.339844 Z M 315.875 178.3125 L 315.875 196.558594 C 310.15625 196.667969 305.460938 198.242188 301.832031 201.25 C 298.246094 204.234375 295.839844 208.273438 294.621094 213.351562 C 293.445312 218.46875 292.785156 227.242188 292.746094 239.683594 C 292.664062 252.164062 292.445312 260.335938 292.0625 264.304688 C 291.378906 270.640625 290.144531 275.675781 288.324219 279.453125 C 286.492188 283.230469 284.246094 286.242188 281.5625 288.5 C 278.855469 290.789062 275.417969 292.511719 271.257812 293.6875 C 268.4375 294.523438 263.8125 294.949219 257.40625 294.949219 L 251.140625 294.949219 L 251.140625 277.386719 L 254.617188 277.386719 C 262.363281 277.386719 267.480469 275.980469 270.039062 273.1875 C 272.558594 270.394531 273.816406 264.097656 273.816406 254.328125 C 273.816406 235.699219 274.160156 223.859375 274.84375 218.867188 C 276.035156 210.625 278.429688 203.976562 281.988281 199.019531 C 285.574219 194.09375 290.652344 190.234375 297.222656 187.457031 C 288.625 183.378906 282.605469 177.957031 279.085938 171.195312 C 275.570312 164.433594 273.816406 153.0625 273.816406 137.035156 C 273.816406 122.488281 273.667969 113.824219 273.285156 110.964844 C 272.75 105.953125 271.300781 102.492188 268.851562 100.507812 C 266.441406 98.5625 261.679688 97.5625 254.617188 97.5625 L 251.140625 97.5625 L 251.140625 80.003906 L 257.40625 80.003906 C 264.703125 80.003906 270 80.578125 273.285156 81.796875 C 278.058594 83.441406 281.988281 86.191406 285.121094 90.035156 C 288.257812 93.921875 290.308594 98.808594 291.226562 104.695312 C 292.144531 110.621094 292.675781 120.269531 292.757812 133.667969 C 292.800781 147.109375 293.445312 156.347656 294.632812 161.464844 C 295.851562 166.585938 298.261719 170.621094 301.847656 173.605469 C 305.472656 176.589844 310.167969 178.148438 315.890625 178.300781 Z M 315.875 178.3125 " fill-opacity="1" fill-rule="nonzero"/></g></svg>